PathFileType	4	(X/Y/Z)	Kaydara	
DataRate	CameraRate	NumFrames	NumMarkers	Units	OrigDataRate	OrigDataStartFrame	OrigNumFrames	
120.00	120.00	4	72	mm	120.00	33	261	
Frame#	Time	Hips			RightUpLeg			RightLeg			RightFoot			RightFoot_End			LeftUpLeg			LeftLeg			LeftFoot			LeftFoot_End			Spine			Spine1			Spine2			Spine3			Neck			Head			Head_End			RightShoulder			RightArm			RightForeArm			RightHand			RightHandThumb1			RightHandThumb2			RightHandThumb3			RightHandThumb3_End			RightInHandIndex			RightHandIndex1			RightHandIndex2			RightHandIndex3			RightHandIndex3_End			RightInHandMiddle			RightHandMiddle1			RightHandMiddle2			RightHandMiddle3			RightHandMiddle3_End			RightInHandRing			RightHandRing1			RightHandRing2			RightHandRing3			RightHandRing3_End			RightInHandPinky			RightHandPinky1			RightHandPinky2			RightHandPinky3			RightHandPinky3_End			LeftShoulder			LeftArm			LeftForeArm			LeftHand			LeftHandThumb1			LeftHandThumb2			LeftHandThumb3			LeftHandThumb3_End			LeftInHandIndex			LeftHandIndex1			LeftHandIndex2			LeftHandIndex3			LeftHandIndex3_End			LeftInHandMiddle			LeftHandMiddle1			LeftHandMiddle2			LeftHandMiddle3			LeftHandMiddle3_End			LeftInHandRing			LeftHandRing1			LeftHandRing2			LeftHandRing3			LeftHandRing3_End			LeftInHandPinky			LeftHandPinky1			LeftHandPinky2			LeftHandPinky3			LeftHandPinky3_End			
		X1	Y1	Z1	X2	Y2	Z2	X3	Y3	Z3	X4	Y4	Z4	X5	Y5	Z5	X6	Y6	Z6	X7	Y7	Z7	X8	Y8	Z8	X9	Y9	Z9	X10	Y10	Z10	X11	Y11	Z11	X12	Y12	Z12	X13	Y13	Z13	X14	Y14	Z14	X15	Y15	Z15	X16	Y16	Z16	X17	Y17	Z17	X18	Y18	Z18	X19	Y19	Z19	X20	Y20	Z20	X21	Y21	Z21	X22	Y22	Z22	X23	Y23	Z23	X24	Y24	Z24	X25	Y25	Z25	X26	Y26	Z26	X27	Y27	Z27	X28	Y28	Z28	X29	Y29	Z29	X30	Y30	Z30	X31	Y31	Z31	X32	Y32	Z32	X33	Y33	Z33	X34	Y34	Z34	X35	Y35	Z35	X36	Y36	Z36	X37	Y37	Z37	X38	Y38	Z38	X39	Y39	Z39	X40	Y40	Z40	X41	Y41	Z41	X42	Y42	Z42	X43	Y43	Z43	X44	Y44	Z44	X45	Y45	Z45	X46	Y46	Z46	X47	Y47	Z47	X48	Y48	Z48	X49	Y49	Z49	X50	Y50	Z50	X51	Y51	Z51	X52	Y52	Z52	X53	Y53	Z53	X54	Y54	Z54	X55	Y55	Z55	X56	Y56	Z56	X57	Y57	Z57	X58	Y58	Z58	X59	Y59	Z59	X60	Y60	Z60	X61	Y61	Z61	X62	Y62	Z62	X63	Y63	Z63	X64	Y64	Z64	X65	Y65	Z65	X66	Y66	Z66	X67	Y67	Z67	X68	Y68	Z68	X69	Y69	Z69	X70	Y70	Z70	X71	Y71	Z71	X72	Y72	Z72	

33	0.267	3081.203	893.81699	129.612	3160.488900278947	896.3672354600956	82.36238624884716	3064.9935063615053	497.10810820235025	0.3764823083016502	3038.8136317950907	107.94138832297567	-30.99487222234854	2925.1415920661548	35.68926409287611	105.68396842084913	3016.16200677988	866.1312920977143	190.35394428114074	2915.153006368259	474.58257844524053	298.9947858185263	2810.3508801426715	69.23848730639011	432.71231052188284	2662.980599034757	11.674074044039415	327.5058183885892	3015.8091808631225	1010.492078815859	79.50470528544139	2954.2279066201286	1068.1850403453718	31.923480337595432	2886.2027949696476	1121.5738284185018	-20.037614403389	2816.037935728143	1161.5517416388136	-73.36865155939564	2739.926634794406	1205.9516644739524	-127.71316756067166	2665.235770493488	1242.3246890594344	-172.22605315201722	2526.503015918568	1320.524227948162	-181.18525420814018	2785.0981079543153	1198.6572115056704	-128.9345993081349	2849.036291568721	1207.7613971362962	-210.66575570290806	2910.537905000809	987.681248636297	-243.19930596463632	3021.764114416896	831.3993671387672	-285.9906446122202	3018.26415884485	828.5030288504361	-306.98899559174896	3007.3566408278493	816.8548963962406	-319.10856882793723	3001.9103277170084	806.4533063075481	-325.5498485833837	2999.2089612203863	795.8230622518321	-329.20975391044516	3027.116632102092	820.0506328231859	-302.32633825615164	3036.913715901656	794.118825464772	-317.384023260083	3035.8924143740633	775.9565760480943	-324.7864406008148	3028.4432459695995	768.4787785186926	-328.1597316485291	3017.6811695254232	764.8618456136016	-330.1229485578019	3032.2498122439424	814.7197165486759	-296.2196363759298	3044.5843680870007	786.543146641132	-307.6042081436187	3044.105669393203	766.1050852253238	-314.8232662161277	3035.4235745350265	756.7861631771698	-318.4810701201137	3023.7962043619546	752.6840867917053	-320.42891749062244	3035.721997791564	811.5962111737113	-291.5421689793045	3050.070032975511	783.57751648685	-297.7465628384468	3050.282093532474	765.1751139432452	-303.14312261670364	3042.2417031820864	755.8737495933885	-306.195745542242	3031.467393528106	751.8686733382606	-307.8018278482322	3038.686944513632	808.8967404405112	-285.54815464734	3053.9987074626197	781.4619955574559	-287.61938570158856	3055.0870118026764	765.9302169998759	-290.5163014189076	3049.666626228162	758.7608018329341	-292.05384574780237	3040.378042045117	754.9914048397169	-293.0800127114514	2745.1020856908135	1182.2191290179687	-90.54781667507696	2699.878015797687	1109.8111652854625	-19.263159752193445	2871.3649557391404	980.8077875754194	-120.46032256495886	3028.9757288848964	868.148139498476	-215.08659280163707	3033.209676500136	873.6105765793361	-236.49289541043095	3057.851928385676	873.6678289878528	-244.39473552621016	3077.379801650163	871.0119780945116	-248.17282554402814	3095.6842448484012	866.4917979460787	-249.84697091239576	3040.918641874165	864.13394747348	-233.43009394415293	3072.9945900634016	849.3619864009216	-250.0602150759265	3101.5368255556596	840.7613888443112	-255.458370546601	3118.2788667518234	839.6782850462945	-255.5395794742147	3131.459936182894	841.6579315145416	-253.39783836488812	3046.5357456521574	857.3959898733012	-227.86671784840382	3080.858179449936	839.3428232367695	-241.07976462407794	3112.6483248414615	829.1188120509197	-246.17449403053985	3133.1564446787957	827.4094732776138	-245.89061937635242	3147.729356283655	829.379833651751	-243.3615226042032	3049.6443923785646	852.9749698480051	-223.56655104691728	3082.9818247470307	832.8479172190301	-231.83535622546108	3111.2957428017958	823.1079078154945	-235.4411936849809	3131.3990111632042	821.0190231135768	-234.72406816922032	3145.2535978161154	822.6631188957579	-232.136004203311	3052.6234066965617	848.6037558476709	-217.6974158358794	3084.9086051917243	827.317533687522	-221.85224032088772	3108.380929202683	818.3132401018266	-223.40089871020413	3123.431124671945	816.2067740639486	-222.23021878015172	3135.9266363472916	817.3277487641158	-219.5649135236525
34	0.275	3081.203	893.81699	129.612	3160.875828025956	896.5784353138224	82.62189722429913	3065.0951713212994	497.33406111862456	0.8710718552785675	3038.6694046122793	107.98567569936766	-29.858997025817217	2924.85720999173	35.868833941869305	106.86109432359586	3015.745354032368	865.907865938244	190.10165858534123	2914.7292265643537	474.406739585854	298.91493689009116	2809.584033616878	69.44270701018229	433.6687464166048	2662.2261871220244	12.212784533357965	328.234912364199	3015.8857312896175	1010.5329307886451	79.49637649518478	2954.3249044433182	1068.1994932969649	31.86077652591394	2886.3043391158	1121.5349183625842	-20.15540303349396	2816.119842605578	1161.4198826440186	-73.51635634956395	2739.9820472370757	1205.7225912095175	-127.89018533692871	2665.1970994188823	1241.9567621705337	-172.37350448797997	2526.4829028746053	1320.1854879426392	-181.38581523218866	2785.199665384122	1198.5191951466534	-129.04283959857116	2849.8677222700785	1208.8707978809073	-210.6885817503672	2912.5229441259203	989.0839225745003	-244.5710301277454	3025.8484383051277	834.0166686143914	-288.9932848646929	3022.8648618097523	831.6569105054582	-310.13138735853795	3012.3472243542865	820.25074316162	-322.85389950589524	3007.155883131848	809.9787878344537	-329.7491736445154	3004.6529278265466	799.4233609160345	-333.8167322712431	3031.7218794845144	823.1404495340234	-305.5711419968877	3042.182443108932	797.6738061906761	-321.2669736515675	3041.534928518868	779.696149940119	-329.28803213602833	3034.231867473043	772.2523217635718	-333.064441120395	3023.532530218805	768.6090077135281	-335.37380376863956	3036.782799908421	817.6810085418937	-299.5432920545008	3049.725433145275	789.8886665255344	-311.5928960599268	3049.6428129170918	769.633391833256	-319.4955660320813	3041.1313322502656	760.3465067349667	-323.6438212819928	3029.5698570064865	756.211215741199	-325.9724112126664	3040.1879201956554	814.4560819238283	-294.9038276500225	3055.0253778366405	786.6973506654166	-301.733050409977	3055.5696366126695	768.43459322634	-307.73315852819036	3047.6868989080112	759.1536833124565	-311.26295460189135	3036.971269489157	755.1124265183424	-313.22896972906426	3043.049126170832	811.6163855227168	-288.94633184148046	3058.7491195896637	784.3379775742054	-291.6085980108697	3060.0809743170967	768.886188464047	-294.99812492691143	3054.7647145365922	761.7162922715665	-296.8882268251836	3045.521858056452	757.9059832499158	-298.2358282779654	2745.132380645035	1181.9637650205648	-90.77731665263425	2699.428613941595	1108.749384087655	-20.03972464884903	2871.9830809731175	980.9667882740762	-122.03628133901144	3031.8291709794394	870.409011400468	-218.07135356430874	3036.2682337132014	876.1610583439985	-239.3360990724706	3061.06433498711	876.370237054929	-247.00416380208293	3080.6978291102614	873.8044147455972	-250.64745816693357	3099.089022002019	869.3457935619607	-252.23318863973574	3043.999022135652	866.6681981588383	-236.37762925919768	3076.3795301167625	852.196023750308	-252.9814205823438	3105.0885370025953	843.7306531425035	-258.2708391694005	3121.887071148866	842.6809199915541	-258.2140477056365	3135.0830704341934	844.6539890447809	-255.91059729459332	3049.599241680468	859.8734167035475	-230.8870445573263	3084.2096140155704	842.0819384687907	-244.11380701416746	3116.178467785196	831.9969251238228	-249.09945974852053	3136.753175012025	830.3237379457186	-248.65368770218706	3151.341657574808	832.284904923908	-245.94988617831112	3052.6886967744053	855.4053031597044	-226.64007066202697	3086.2690104630246	835.4739473163429	-234.9705511208005	3114.734888192928	825.8459183162424	-238.49107211010104	3134.9003637736673	823.7870339276238	-237.62296443577384	3148.7686342223656	825.4201766917452	-234.8730887545824	3055.632756530138	850.9655976624326	-220.82437457725433	3088.120981495997	829.8190935578557	-225.07238112438023	3111.70799150423	820.8893025861685	-226.56766205326122	3126.8001761796277	818.7973830030161	-225.2940839027626	3139.3058616357366	819.90443287999	-222.4895984447639
35	0.283	3081.203	893.81699	129.612	3161.250042087442	896.7738613889595	82.87419443470297	3065.164069974227	497.5525166033699	1.3479719134978678	3038.4837564158024	108.02475470689126	-28.724877317924754	2924.534144776661	36.045354125424744	108.03840692797972	3015.341079459819	865.7010443677542	189.85848163497323	2914.300385062887	474.24009447317957	298.80262891311827	2808.8134435023803	69.64845574307394	434.5614233407197	2661.4644535826956	12.74992151434932	328.90589398226854	3015.9657277916112	1010.5714893254514	79.47830141289651	2954.4222438271113	1068.2072505882015	31.786906917780186	2886.40229739245	1121.4841075345155	-20.284467688774747	2816.1938157661843	1161.27039202319	-73.6733617444606	2740.0254971514587	1205.4705685342751	-128.07471889599242	2665.1522966733833	1241.5682668550332	-172.53428503271775	2526.470327733757	1319.847645191599	-181.61356331752356	2785.288295035244	1198.3589571697005	-129.15788006109608	2850.6379799940296	1209.8729659460594	-210.6967243879768	2914.539091626682	990.4350185489745	-245.886776197515	3030.087712902755	836.6735703300147	-292.0095078817232	3027.644969373248	834.8703562747106	-313.3022269822817	3017.5278872558324	823.7107902679643	-326.6568635668086	3012.5965508807462	813.5695384688983	-334.0268320187691	3010.2941481252387	803.0879719729081	-338.51962121008086	3036.5011646616313	826.28507877441	-308.8460398703214	3047.6411549320605	801.2938113584768	-325.2112421643657	3047.373200031129	783.5016577139206	-333.8783420344118	3040.2176307905606	776.0899302275521	-338.07528851145315	3029.580691688417	772.4170462021947	-340.7454746998954	3041.4824866817085	820.690588144537	-302.897244643581	3055.0447831649003	793.2889067142313	-315.6424438780208	3055.3635136564276	773.2165092602143	-324.25855738297525	3047.023825239396	763.9589740498685	-328.91824743770684	3035.5276324129313	759.7867686930774	-331.64362426749915	3044.814991351023	817.3594206393035	-298.2950809232925	3060.1475584121476	789.8623824687407	-305.7757698269653	3061.027542607824	771.7384167154357	-312.40531104714023	3053.3030263697196	762.4748742032751	-316.4324590526822	3042.6452325041564	758.3937235314502	-318.7734633231554	3047.5652703458777	814.3732473582086	-292.3727745750697	3063.6544247304896	787.2490830556944	-295.64953422287994	3065.2309629192177	771.8751372457243	-299.55210228596354	3060.018425482116	764.7018007094606	-301.8093364047409	3050.8200773866524	760.8468833210845	-303.49162690566374	2745.1544857385925	1181.6883554374433	-91.01611906126384	2698.991566134426	1107.6656915678636	-20.83459204820794	2872.4492904036033	980.9337465493865	-123.5348570769822	3034.6686346068623	872.6099319439726	-221.0457175301296	3039.3082817696413	878.6419508044017	-242.16649094586123	3064.254625874118	878.9922407746641	-249.6014022273263	3083.9908925377395	876.5093902610807	-253.1098906048573	3102.466173212314	872.1068513902504	-254.60681857766292	3047.058974698052	869.1337936086064	-239.31002806462058	3079.7342309342243	854.9493661733516	-255.88083071961813	3108.604773683551	846.6102286957715	-261.0596276754465	3125.458455881194	845.588484169894	-260.8660505128752	3138.669559296299	847.5506622788033	-258.4035058278829	3052.641812941856	862.2838699892542	-233.89139170144284	3087.530284242073	844.7432468161568	-247.12491871617215	3119.672102307305	834.7876775309937	-251.999351362049	3140.3117583766993	833.1442734865346	-251.3931062778669	3154.9159955246887	835.0915880441112	-248.5174412960352	3055.711955214562	857.7701651946827	-229.69715287431137	3089.5261679949417	838.0261218041529	-238.0825873129082	3118.1389816302158	828.5020291836579	-241.51584744123886	3138.365075040334	826.4671521205983	-240.49809053011103	3152.2471975880453	828.0850325692799	-237.58905531013912	3058.621365247684	853.2639935973696	-223.93481445881082	3091.3044944338576	832.2507858985039	-228.26967812619867	3115.0021808878623	823.3895340336088	-229.70993434774292	3130.1352018208913	821.3080209867228	-228.3343863599151	3142.6512140308023	822.3974614452239	-225.39304499388436
36	0.292	3081.203	893.81699	129.612	3161.6133257557403	896.9541891604515	83.11983537463504	3065.186123638851	497.7628745940846	1.8318480995464288	3038.2514156826646	108.05715238746362	-27.560785355434685	2924.166656828939	36.222027246280035	109.2499144878605	3014.94718297713	865.5101362368531	189.62416545454383	2913.855845232621	474.0840776002175	298.65588307541304	2808.0379790563643	69.84928183849073	435.366732324692	2660.6914995733464	13.275493604383211	329.5035021362556	3016.049936583762	1010.6078547446408	79.44923453192588	2954.525445363452	1068.2163886572291	31.703317693387838	2886.5096917886954	1121.4415732438201	-20.42207435946528	2816.2846899625993	1161.142023372997	-73.84153944395283	2740.093584766513	1205.2534030564814	-128.27232456674565	2665.146988127391	1241.2330413838881	-172.71632704425852	2526.507135167579	1319.5779540693375	-181.87707271557835	2785.4073760475935	1198.2477490117835	-129.283339437536	2851.388242614637	1210.8299926224306	-210.69251256224908	2916.592017712276	991.7432742801665	-247.2296269577569	3034.496980148351	839.3844990694887	-295.11917257136486	3032.555186222774	838.1127520116336	-316.55530805663847	3022.8045012965777	827.200698407064	-330.5093030108857	3018.110459413891	817.192714513002	-338.33033808565284	3015.990597508857	806.7887974168206	-343.22796774974927	3041.4098325220953	829.4608459054721	-312.2009647347874	3053.175202689297	804.9276527046604	-329.204603852771	3053.254157196503	787.3219366439865	-338.4870552205511	3046.231820681951	779.949784093018	-343.08349016659247	3035.6495511375933	776.2581658269822	-346.09574911115317	3046.316602767795	823.7377736865384	-306.32966371495263	3060.448575090107	796.7133720342314	-319.73944450515665	3061.1338758053284	776.8257977863931	-329.035396055022	3052.949183276739	767.6070742159595	-334.18106955212784	3041.510014287812	763.4100266718975	-337.2826890223458	3049.5813821316206	820.3052537941737	-301.7645691193513	3065.3683471937447	793.0618016320014	-309.8689670932704	3066.5546874789397	775.0792924434353	-317.098579042203	3058.9726933144843	765.8427584690778	-321.59849130265013	3048.365207777913	761.7333085498707	-324.29515017381823	3052.2283626147528	817.1797048566818	-295.87743843626856	3068.673841740815	790.2063094807108	-299.7434886539342	3070.473198471447	774.9138881567659	-304.13559436809464	3065.3537317971236	767.744892244044	-306.74203054088906	3056.1936843227086	763.8560683428099	-308.7418851979497	2745.1904408648406	1181.42409780902	-91.27040299877294	2698.5769284539483	1106.5939398246837	-21.65630672300654	2872.7931722291637	980.7652840386056	-124.98231251790325	3037.387662049977	874.6954435292624	-223.91570019886274	3042.230087760917	881.0039166166273	-244.89291962399008	3067.3277675127956	881.4934546814281	-252.09401359960643	3087.1671983289066	879.0925517290616	-255.46679222404552	3105.726577892397	874.745475199097	-256.8737869743965	3049.999584882355	871.4809841390867	-242.13688058381265	3082.969803704811	857.5813265765452	-258.6714503386706	3112.0019215976404	849.3670752241098	-263.73758123539324	3128.9110003120695	848.3728879556245	-263.4066755262406	3142.1375637708225	850.3240918047004	-260.7850783368314	3055.5640256986444	864.5768000756424	-236.78911542208368	3090.7302552905476	847.2846047666136	-250.02566046439745	3123.0449460076125	837.4571365663227	-254.78651052285258	3143.7497852796837	835.8430560610233	-254.01907462920386	3158.3701355872317	837.776456579166	-250.9715611931122	3058.614130679434	860.0181965243501	-232.6469279831805	3092.6613048227937	840.459873673423	-241.0833482713181	3121.420836769211	831.0386805234205	-244.4271605111937	3141.7077013821054	829.0274382035315	-243.25899364738436	3155.603978377191	830.63003223677	-240.19078078478324	3061.4880594442825	855.4464918220131	-226.9372980190882	3094.3647160841697	834.5656742205549	-231.35495879217493	3118.1726947546035	825.7723466179083	-232.73825649661285	3133.3465620269235	823.701072619883	-231.2600950680529	3145.8731104845942	824.7729420171966	-228.1818310662342
